# xmcd
#
# Track frame offsets: 
#        150
#        16260
#        31622
#        44693
#        67302
#        75430
#        92530
#        110705
#        131901
#        146599
#        159374
#        171516
#
# Disc length: 2512 seconds
#
# Revision: 0
# Processed by: cddbd v1.5.2PL0 Copyright (c) Steve Scherf et al.
# Submitted via: ExactAudioCopy v0.99pb3
#
DISCID=a109ce0c
DTITLE=Jo Jo Zep And The Falcons - Jo Jo Zep And The Falcons
DYEAR=1979
DGENRE=Rock and Roll
TTITLE0=So Young
TTITLE1=The Girl Across The Street (Just Turned 18)
TTITLE2=Security
TTITLE3=Dancing Shoes
TTITLE4=Show Ya Fun
TTITLE5=It's All Over Now
TTITLE6=Fix It Up
TTITLE7=Sweet Little Latin Lover
TTITLE8=Some Day It's Gonna Come To You
TTITLE9=Soon You'll Be Gone
TTITLE10=Rough and Ready
TTITLE11=We're All In The Same Boat
EXTD=
EXTT0=
EXTT1=
EXTT2=
EXTT3=
EXTT4=
EXTT5=
EXTT6=
EXTT7=
EXTT8=
EXTT9=
EXTT10=
EXTT11=
PLAYORDER=
